<svg width="20" height="20" viewBox="0 0 20 20" fill="none" xmlns="http://www.w3.org/2000/svg">
<path d="M4.475 1.40626C4.57896 1.49686 4.65005 1.61929 4.67718 1.75449C4.70431 1.88969 4.68596 2.03007 4.625 2.15376C4.6139 2.19022 4.60842 2.22815 4.60875 2.26626C4.60875 2.34501 4.62875 2.49501 4.8175 2.68251C4.90875 2.77376 4.97875 2.83876 5.055 2.91001C5.1175 2.96751 5.18375 3.02751 5.2675 3.11001C5.43 3.26501 5.60125 3.44751 5.755 3.67626C6.07375 4.15501 6.25 4.75376 6.25 5.62501C6.25 6.10251 6.17125 6.55001 6.0275 6.94626C5.62 8.07126 4.70375 8.75001 3.75 8.75001C2.79625 8.75001 1.88 8.07001 1.4725 6.94626C1.32218 6.52211 1.24689 6.07501 1.25 5.62501C1.25 5.21751 1.35875 4.73126 1.50875 4.28251C1.65875 3.83376 1.86875 3.36751 2.11125 2.99251C2.4 2.50501 2.80625 2.09626 3.12125 1.82126C3.29458 1.67014 3.47477 1.52707 3.66125 1.39251L3.69875 1.36751L3.71 1.35876L3.71375 1.35626L3.71625 1.35501C3.83087 1.27861 3.96752 1.24221 4.10496 1.25148C4.2424 1.26075 4.37293 1.31516 4.47625 1.40626M3.75 10C4.54396 10.002 5.31321 9.72407 5.9225 9.21501C5.9475 9.29334 5.97125 9.37251 5.99375 9.45251C6.25 10.3925 6.25 11.555 6.25 12.4538V12.5C6.25 15.0725 5.76875 16.6 5.22375 17.5088C5.01725 17.8662 4.74695 18.1826 4.42625 18.4425C4.29868 18.5412 4.16029 18.6251 4.01375 18.6925C4.01375 18.6925 3.855 18.75 3.75 18.75C3.65989 18.7429 3.57116 18.7235 3.48625 18.6925C3.33971 18.6251 3.20132 18.5412 3.07375 18.4425C2.75306 18.1826 2.48275 17.8662 2.27625 17.5088C1.73125 16.6013 1.25 15.0725 1.25 12.5V12.455C1.25 11.555 1.25 10.3938 1.50625 9.45126C1.52792 9.37293 1.55167 9.29376 1.5775 9.21376C2.18627 9.72417 2.95557 10.0035 3.75 10.0025M8.7475 13.7188C8.31421 13.6704 7.88802 13.5718 7.4775 13.425C7.4925 13.11 7.5 12.785 7.5 12.45V12.08C7.8875 12.2638 8.3075 12.3925 8.7475 12.455V10C8.7475 9.33697 9.01089 8.70108 9.47973 8.23224C9.94858 7.7634 10.5845 7.50001 11.2475 7.50001H13.7038C13.6043 6.80888 13.3409 6.15158 12.9355 5.58305C12.5302 5.01452 11.9946 4.55128 11.3736 4.23203C10.7526 3.91278 10.0642 3.74681 9.36599 3.74798C8.66775 3.74915 7.97992 3.91743 7.36 4.23876C7.2618 3.83011 7.09982 3.43948 6.88 3.08126C7.69016 2.68087 8.58486 2.48156 9.48837 2.50022C10.3919 2.51888 11.2776 2.75496 12.0705 3.18846C12.8635 3.62196 13.5403 4.24013 14.0437 4.99064C14.5471 5.74114 14.8622 6.60189 14.9625 7.50001H16.2463C16.9093 7.50001 17.5452 7.7634 18.014 8.23224C18.4829 8.70108 18.7463 9.33697 18.7463 10V15C18.7463 15.6631 18.4829 16.2989 18.014 16.7678C17.5452 17.2366 16.9093 17.5 16.2463 17.5H11.2463C10.5832 17.5 9.94732 17.2366 9.47848 16.7678C9.00964 16.2989 8.74625 15.6631 8.74625 15L8.7475 13.7188ZM14.9637 8.75001C14.8222 10.0184 14.2534 11.201 13.3509 12.1035C12.4485 13.0059 11.2659 13.5747 9.9975 13.7163V15C9.9975 15.3315 10.1292 15.6495 10.3636 15.8839C10.598 16.1183 10.916 16.25 11.2475 16.25H16.2475C16.579 16.25 16.897 16.1183 17.1314 15.8839C17.3658 15.6495 17.4975 15.3315 17.4975 15V10C17.4975 9.66849 17.3658 9.35055 17.1314 9.11613C16.897 8.88171 16.579 8.75001 16.2475 8.75001H14.9637ZM13.7038 8.75001H11.2475C10.916 8.75001 10.598 8.88171 10.3636 9.11613C10.1292 9.35055 9.9975 9.66849 9.9975 10V12.4563C10.9326 12.3215 11.799 11.8876 12.4671 11.2196C13.1351 10.5515 13.569 9.68514 13.7038 8.75001Z" fill="#757575"/>
</svg>
