<svg width="20" height="20" viewBox="0 0 20 20" fill="none" xmlns="http://www.w3.org/2000/svg">
<path fill-rule="evenodd" clip-rule="evenodd" d="M3.47667 2.64335C2.5 3.61919 2.5 5.19085 2.5 8.33335V11.6667C2.5 14.8092 2.5 16.3809 3.47667 17.3567C4.45333 18.3325 6.02417 18.3334 9.16667 18.3334H10.8333C13.9758 18.3334 15.5475 18.3334 16.5233 17.3567C17.4992 16.38 17.5 14.8092 17.5 11.6667V8.33335C17.5 5.19085 17.5 3.61919 16.5233 2.64335C15.5467 1.66752 13.9758 1.66669 10.8333 1.66669H9.16667C6.02417 1.66669 4.4525 1.66669 3.47667 2.64335ZM6.66667 7.70835C6.50091 7.70835 6.34193 7.7742 6.22472 7.89141C6.10751 8.00862 6.04167 8.16759 6.04167 8.33335C6.04167 8.49911 6.10751 8.65808 6.22472 8.77529C6.34193 8.89251 6.50091 8.95835 6.66667 8.95835H13.3333C13.4991 8.95835 13.6581 8.89251 13.7753 8.77529C13.8925 8.65808 13.9583 8.49911 13.9583 8.33335C13.9583 8.16759 13.8925 8.00862 13.7753 7.89141C13.6581 7.7742 13.4991 7.70835 13.3333 7.70835H6.66667ZM6.66667 11.0417C6.50091 11.0417 6.34193 11.1075 6.22472 11.2247C6.10751 11.342 6.04167 11.5009 6.04167 11.6667C6.04167 11.8324 6.10751 11.9914 6.22472 12.1086C6.34193 12.2258 6.50091 12.2917 6.66667 12.2917H10.8333C10.9991 12.2917 11.1581 12.2258 11.2753 12.1086C11.3925 11.9914 11.4583 11.8324 11.4583 11.6667C11.4583 11.5009 11.3925 11.342 11.2753 11.2247C11.1581 11.1075 10.9991 11.0417 10.8333 11.0417H6.66667Z" fill="#757575"/>
</svg>
