<svg width="20" height="20" viewBox="0 0 20 20" fill="none" xmlns="http://www.w3.org/2000/svg">
<path d="M10 1.66667C8.90565 1.66667 7.82201 1.88222 6.81097 2.30101C5.79992 2.7198 4.88126 3.33363 4.10744 4.10745C2.54464 5.67025 1.66666 7.78987 1.66666 10C1.66666 13.6833 4.05833 16.8083 7.36666 17.9167C7.78333 17.9833 7.91666 17.725 7.91666 17.5V16.0917C5.60833 16.5917 5.11666 14.975 5.11666 14.975C4.73333 14.0083 4.19166 13.75 4.19166 13.75C3.43333 13.2333 4.25 13.25 4.25 13.25C5.08333 13.3083 5.525 14.1083 5.525 14.1083C6.25 15.375 7.475 15 7.95 14.8C8.025 14.2583 8.24166 13.8917 8.475 13.6833C6.625 13.475 4.68333 12.7583 4.68333 9.58334C4.68333 8.65834 5 7.91667 5.54166 7.32501C5.45833 7.11667 5.16666 6.25001 5.625 5.12501C5.625 5.12501 6.325 4.90001 7.91666 5.97501C8.575 5.79167 9.29166 5.70001 10 5.70001C10.7083 5.70001 11.425 5.79167 12.0833 5.97501C13.675 4.90001 14.375 5.12501 14.375 5.12501C14.8333 6.25001 14.5417 7.11667 14.4583 7.32501C15 7.91667 15.3167 8.65834 15.3167 9.58334C15.3167 12.7667 13.3667 13.4667 11.5083 13.675C11.8083 13.9333 12.0833 14.4417 12.0833 15.2167V17.5C12.0833 17.725 12.2167 17.9917 12.6417 17.9167C15.95 16.8 18.3333 13.6833 18.3333 10C18.3333 8.90566 18.1178 7.82202 17.699 6.81098C17.2802 5.79993 16.6664 4.88127 15.8926 4.10745C15.1187 3.33363 14.2001 2.7198 13.189 2.30101C12.178 1.88222 11.0943 1.66667 10 1.66667Z" fill="#757575"/>
</svg>
