<svg width="36" height="36" viewBox="0 0 36 36" fill="none" xmlns="http://www.w3.org/2000/svg">
<path d="M26.625 2.6895L29.7803 5.84475C29.9169 5.9862 29.9925 6.17565 29.9908 6.3723C29.989 6.56895 29.9102 6.75706 29.7711 6.89611C29.6321 7.03517 29.4439 7.11405 29.2473 7.11575C29.0507 7.11746 28.8612 7.04187 28.7197 6.90525L27.375 5.5605V33H25.875V5.5605L24.5303 6.90525C24.4611 6.97688 24.3783 7.03402 24.2868 7.07333C24.1953 7.11263 24.0969 7.13332 23.9973 7.13419C23.8977 7.13505 23.799 7.11608 23.7068 7.07836C23.6146 7.04065 23.5309 6.98496 23.4605 6.91455C23.39 6.84413 23.3343 6.76039 23.2966 6.66821C23.2589 6.57604 23.2399 6.47728 23.2408 6.3777C23.2417 6.27811 23.2624 6.1797 23.3017 6.0882C23.341 5.99669 23.3981 5.91393 23.4697 5.84475L26.625 2.6895ZM21 6C21 6.79565 20.6839 7.55871 20.1213 8.12132C19.5587 8.68393 18.7956 9 18 9C17.2044 9 16.4413 8.68393 15.8787 8.12132C15.3161 7.55871 15 6.79565 15 6C15 5.20435 15.3161 4.44129 15.8787 3.87868C16.4413 3.31607 17.2044 3 18 3C18.7956 3 19.5587 3.31607 20.1213 3.87868C20.6839 4.44129 21 5.20435 21 6Z" fill="#363131"/>
<path d="M22.4999 21.6C22.7383 21.4846 22.9419 21.3081 23.0899 21.0885C23.238 20.8689 23.3253 20.614 23.3429 20.3498L23.8717 12.42C23.9369 11.445 23.0677 10.6665 22.1024 10.815C20.7674 11.0198 19.0387 11.25 17.9999 11.25C16.9612 11.25 15.2324 11.0198 13.8974 10.815C12.9314 10.6665 12.0629 11.445 12.1274 12.42L12.6562 20.3498C12.6737 20.6142 12.7611 20.8693 12.9093 21.0891C13.0575 21.3088 13.2613 21.4854 13.4999 21.6008V31.5C13.5003 31.8877 13.6507 32.2601 13.9196 32.5393C14.1885 32.8185 14.5551 32.9827 14.9425 32.9976C15.3299 33.0124 15.7079 32.8767 15.9974 32.6189C16.2869 32.3611 16.4654 32.0012 16.4954 31.6148L17.2454 21.8648C17.2484 21.8266 17.2499 21.7883 17.2499 21.75H18.7499C18.7499 21.788 18.7514 21.8263 18.7544 21.8648L19.5044 31.6148C19.5344 32.0012 19.7129 32.3611 20.0024 32.6189C20.2919 32.8767 20.67 33.0124 21.0573 32.9976C21.4447 32.9827 21.8113 32.8185 22.0802 32.5393C22.3491 32.2601 22.4996 31.8877 22.4999 31.5V21.6Z" fill="#363131"/>
</svg>
