<svg width="12" height="12" viewBox="0 0 12 12" fill="none" xmlns="http://www.w3.org/2000/svg">
<path d="M9.75 3.75C9.75 3.75 10.5 4.5 10.5 5.75C10.5 7 9.75 7.75 9.75 7.75" stroke="black" stroke-width="1.5" stroke-linecap="round" stroke-linejoin="round"/>
<path d="M1 6.9285V5.0715C1 4.80628 1.10536 4.55193 1.29289 4.36439C1.48043 4.17686 1.73478 4.0715 2 4.0715H3.45C3.54776 4.07147 3.64337 4.04279 3.725 3.989L6.725 2.011C6.80038 1.96136 6.88778 1.93305 6.97795 1.92907C7.06812 1.92509 7.15768 1.94559 7.23713 1.98839C7.31659 2.0312 7.38298 2.09471 7.42926 2.17219C7.47554 2.24968 7.49999 2.33825 7.5 2.4285V9.5715C7.49999 9.66175 7.47554 9.75032 7.42926 9.8278C7.38298 9.90529 7.31659 9.9688 7.23713 10.0116C7.15768 10.0544 7.06812 10.0749 6.97795 10.0709C6.88778 10.067 6.80038 10.0386 6.725 9.989L3.725 8.011C3.64337 7.95721 3.54776 7.92852 3.45 7.9285H2C1.73478 7.9285 1.48043 7.82314 1.29289 7.63561C1.10536 7.44807 1 7.19372 1 6.9285Z" stroke="black" stroke-width="1.5"/>
</svg>
