<svg width="36" height="36" viewBox="0 0 36 36" fill="none" xmlns="http://www.w3.org/2000/svg">
<path d="M3 9C3 8.60218 3.15804 8.22064 3.43934 7.93934C3.72064 7.65804 4.10218 7.5 4.5 7.5H31.5C31.8978 7.5 32.2794 7.65804 32.5607 7.93934C32.842 8.22064 33 8.60218 33 9C33 9.39782 32.842 9.77936 32.5607 10.0607C32.2794 10.342 31.8978 10.5 31.5 10.5H4.5C4.10218 10.5 3.72064 10.342 3.43934 10.0607C3.15804 9.77936 3 9.39782 3 9ZM3 18.048C3 17.6502 3.15804 17.2686 3.43934 16.9873C3.72064 16.706 4.10218 16.548 4.5 16.548H31.5C31.8978 16.548 32.2794 16.706 32.5607 16.9873C32.842 17.2686 33 17.6502 33 18.048C33 18.4458 32.842 18.8274 32.5607 19.1087C32.2794 19.39 31.8978 19.548 31.5 19.548H4.5C4.10218 19.548 3.72064 19.39 3.43934 19.1087C3.15804 18.8274 3 18.4458 3 18.048ZM4.5 25.5975C4.10218 25.5975 3.72064 25.7555 3.43934 26.0368C3.15804 26.3181 3 26.6997 3 27.0975C3 27.4953 3.15804 27.8769 3.43934 28.1582C3.72064 28.4395 4.10218 28.5975 4.5 28.5975H31.5C31.8978 28.5975 32.2794 28.4395 32.5607 28.1582C32.842 27.8769 33 27.4953 33 27.0975C33 26.6997 32.842 26.3181 32.5607 26.0368C32.2794 25.7555 31.8978 25.5975 31.5 25.5975H4.5Z" fill="#363131"/>
</svg>
