<svg width="64" height="64" viewBox="0 0 64 64" fill="none" xmlns="http://www.w3.org/2000/svg">
<path d="M32 5.33333C36.9507 5.33333 41.6986 7.29999 45.1993 10.8007C48.7 14.3013 50.6667 19.0493 50.6667 24C50.6667 27.7333 49.5733 31.2267 47.68 34.1333L32 59.2267L16.32 34.1333C14.3624 31.1168 13.3247 27.596 13.3333 24C13.3333 19.0493 15.3 14.3013 18.8007 10.8007C22.3014 7.29999 27.0493 5.33333 32 5.33333ZM32 9.33333C28.572 9.33229 25.2519 10.532 22.6164 12.7242C19.981 14.9164 18.1966 17.9624 17.5733 21.3333H24.4533C25.5467 18.2133 28.5067 16 32 16C35.4933 16 38.4533 18.2133 39.5467 21.3333H46.4267C45.8034 17.9624 44.0191 14.9164 41.3836 12.7242C38.7481 10.532 35.428 9.33229 32 9.33333ZM32 32C30.344 32.0048 28.7276 31.4938 27.3752 30.5381C26.0229 29.5824 25.0016 28.2293 24.4533 26.6667H17.5733C17.92 28.5067 18.5867 30.24 19.5733 31.76L19.68 32C21.0163 34.0489 22.843 35.7318 24.9944 36.896C27.1458 38.0602 29.5538 38.6688 32 38.6667C37.1733 38.6667 41.7067 36 44.32 32L44.4267 31.76C45.4133 30.24 46.08 28.5067 46.4267 26.6667H39.5467C38.9984 28.2293 37.9771 29.5824 36.6248 30.5381C35.2724 31.4938 33.656 32.0048 32 32ZM32 20C30.9391 20 29.9217 20.4214 29.1716 21.1716C28.4214 21.9217 28 22.9391 28 24C28 25.0609 28.4214 26.0783 29.1716 26.8284C29.9217 27.5786 30.9391 28 32 28C33.0609 28 34.0783 27.5786 34.8284 26.8284C35.5786 26.0783 36 25.0609 36 24C36 22.9391 35.5786 21.9217 34.8284 21.1716C34.0783 20.4214 33.0609 20 32 20Z" fill="#CF2923"/>
</svg>
