<svg width="20" height="20" viewBox="0 0 20 20" fill="none" xmlns="http://www.w3.org/2000/svg">
<mask id="mask0_11_201" style="mask-type:luminance" maskUnits="userSpaceOnUse" x="0" y="2" width="20" height="16">
<path d="M17.0833 3.33334H2.91666C2.22631 3.33334 1.66666 3.89299 1.66666 4.58334V15.4167C1.66666 16.107 2.22631 16.6667 2.91666 16.6667H17.0833C17.7737 16.6667 18.3333 16.107 18.3333 15.4167V4.58334C18.3333 3.89299 17.7737 3.33334 17.0833 3.33334Z" stroke="white" stroke-width="2" stroke-linejoin="round"/>
<path d="M1.66666 4.58334C1.66666 4.25182 1.79836 3.93388 2.03278 3.69946C2.2672 3.46504 2.58514 3.33334 2.91666 3.33334H17.0833C17.4149 3.33334 17.7328 3.46504 17.9672 3.69946C18.2016 3.93388 18.3333 4.25182 18.3333 4.58334V8.33334H1.66666V4.58334Z" fill="white" stroke="white" stroke-width="2"/>
<path d="M3.33333 5.83335C3.33333 5.37312 3.70643 5.00002 4.16667 5.00002C4.6269 5.00002 5 5.37312 5 5.83335C5 6.29359 4.6269 6.66669 4.16667 6.66669C3.70643 6.66669 3.33333 6.29359 3.33333 5.83335Z" fill="black"/>
<path d="M5.83333 5.83335C5.83333 5.37312 6.20643 5.00002 6.66667 5.00002C7.1269 5.00002 7.5 5.37312 7.5 5.83335C7.5 6.29359 7.1269 6.66669 6.66667 6.66669C6.20643 6.66669 5.83333 6.29359 5.83333 5.83335Z" fill="black"/>
</mask>
<g mask="url(#mask0_11_201)">
<path d="M0 0H20V20H0V0Z" fill="#757575"/>
</g>
</svg>
