<svg width="36" height="36" viewBox="0 0 36 36" fill="none" xmlns="http://www.w3.org/2000/svg">
<path d="M23.25 21H22.065L21.645 20.595C23.1659 18.8311 24.0018 16.5791 24 14.25C24 12.3216 23.4282 10.4366 22.3568 8.83319C21.2855 7.22982 19.7627 5.98013 17.9812 5.24218C16.1996 4.50422 14.2392 4.31114 12.3479 4.68735C10.4566 5.06355 8.71927 5.99215 7.35571 7.35571C5.99215 8.71927 5.06355 10.4566 4.68735 12.3479C4.31114 14.2392 4.50422 16.1996 5.24218 17.9812C5.98013 19.7627 7.22982 21.2855 8.83319 22.3568C10.4366 23.4282 12.3216 24 14.25 24C16.665 24 18.885 23.115 20.595 21.645L21 22.065V23.25L28.5 30.735L30.735 28.5L23.25 21ZM14.25 21C10.515 21 7.5 17.985 7.5 14.25C7.5 10.515 10.515 7.5 14.25 7.5C17.985 7.5 21 10.515 21 14.25C21 17.985 17.985 21 14.25 21Z" fill="white"/>
</svg>
