<svg width="36" height="36" viewBox="0 0 36 36" fill="none" xmlns="http://www.w3.org/2000/svg">
<path d="M20.9999 9C20.9999 9.79565 20.6838 10.5587 20.1212 11.1213C19.5586 11.6839 18.7955 12 17.9999 12C17.2042 12 16.4412 11.6839 15.8786 11.1213C15.316 10.5587 14.9999 9.79565 14.9999 9C14.9999 8.20435 15.316 7.44129 15.8786 6.87868C16.4412 6.31607 17.2042 6 17.9999 6C18.7955 6 19.5586 6.31607 20.1212 6.87868C20.6838 7.44129 20.9999 8.20435 20.9999 9ZM23.1974 12C23.7235 11.0878 24.0002 10.0533 23.9999 9.00031C23.9995 7.94732 23.7221 6.91297 23.1954 6.00117C22.6687 5.08937 21.9113 4.33224 20.9993 3.80584C20.0873 3.27945 19.0529 3.00233 17.9999 3.00233C16.9469 3.00233 15.9124 3.27945 15.0005 3.80584C14.0885 4.33224 13.3311 5.08937 12.8044 6.00117C12.2777 6.91297 12.0002 7.94732 11.9999 9.00031C11.9995 10.0533 12.2763 11.0878 12.8024 12H7.59888C7.2447 11.9999 6.90191 12.1252 6.63122 12.3536C6.36052 12.582 6.17939 12.8988 6.11988 13.248L3.29988 29.748C3.2632 29.9632 3.27395 30.1839 3.33138 30.3945C3.38881 30.6052 3.49153 30.8007 3.63237 30.9676C3.77321 31.1344 3.94878 31.2685 4.1468 31.3605C4.34483 31.4524 4.56055 31.5 4.77888 31.5H31.2224C31.4409 31.5001 31.6567 31.4524 31.8549 31.3604C32.053 31.2683 32.2287 31.1341 32.3696 30.9671C32.5104 30.8001 32.6131 30.6043 32.6704 30.3935C32.7277 30.1827 32.7383 29.9618 32.7014 29.7465L29.8814 13.2465C29.8215 12.8974 29.64 12.5807 29.3691 12.3525C29.0981 12.1244 28.7551 11.9995 28.4009 12H23.1974Z" fill="#363131"/>
</svg>
